<svg width="120" height="120" viewBox="0 0 120 120" fill="none" xmlns="http://www.w3.org/2000/svg">
<circle cx="60" cy="60" r="59.5" fill="white" stroke="black"/>
<path d="M48.5 53C48.5 53 32.4633 61.9666 25.5 71C18.6126 79.9349 14 97.5 14 97.5" stroke="black"/>
<path d="M72 53C72 53 88.0367 61.9666 95 71C101.887 79.9349 106.5 97.5 106.5 97.5" stroke="black"/>
<circle cx="60.5" cy="44.5" r="15" fill="white" stroke="black"/>
<path d="M68 84.5001C68.5548 81.7809 69.7268 78.8956 72.5 79.0001C74.7114 79.0835 76.7353 82.7648 76.7353 82.7648C76.7353 82.7648 78.4564 79.3829 80.5 79.0001C83.4857 78.4409 85.2873 81.5474 86 84.5001C87.1663 89.3319 77 93.5001 77 93.5001C77 93.5001 67.0064 89.3704 68 84.5001Z" fill="#EE6047"/>
<path d="M77 83.0001L76.7353 82.7648M76.7353 82.7648C76.7353 82.7648 74.7114 79.0835 72.5 79.0001C69.7268 78.8956 68.5548 81.7809 68 84.5001C67.0064 89.3704 77 93.5001 77 93.5001C77 93.5001 87.1663 89.3319 86 84.5001C85.2873 81.5474 83.4857 78.4409 80.5 79.0001C78.4564 79.3829 76.7353 82.7648 76.7353 82.7648Z" stroke="black"/>
</svg>
